<svg xmlns="http://www.w3.org/2000/svg" viewBox="0 0 100 100"><path d="M16 84 L80 20" stroke="#fbbf24" stroke-width="5" stroke-linecap="round"/><path d="M26 74 L18 74 M26 74 L26 82 M21 79 L13 79 M21 79 L21 87" stroke="#fbbf24" stroke-width="3.5" stroke-linecap="round" fill="none"/><path d="M90 10 L83 27 L73 17 Z" fill="#fbbf24" stroke="#fbbf24" stroke-width="2" stroke-linejoin="round"/><path d="M50 90 C45 83 24 67 24 46 A26 26 0 1 1 76 46 C76 67 55 83 50 90 Z" fill="#ff6b57" stroke="#0b4f4a" stroke-width="3" stroke-linejoin="round"/><path d="M50 5 C57 11 60 17 57 23 C56 20 54 19 52.5 18 C53 21.5 51 24.5 48 24.5 C44.5 24.5 42.5 21 44 17 C45 13.5 48 10 50 5 Z" fill="#f59e0b"/><path d="M50 12 C53 15.5 54 18.5 52.5 21.5 C51 23.5 48.5 23.5 47.5 21.5 C46.5 19 48 15.5 50 12 Z" fill="#fcd34d"/><ellipse cx="40.5" cy="45" rx="4.3" ry="5.4" fill="#2e2723"/><ellipse cx="59.5" cy="45" rx="4.3" ry="5.4" fill="#2e2723"/><circle cx="42" cy="42.8" r="1.6" fill="#ffffff"/><circle cx="61" cy="42.8" r="1.6" fill="#ffffff"/><ellipse cx="32.5" cy="54" rx="4.5" ry="2.8" fill="#ffc9bf" opacity="0.8"/><ellipse cx="67.5" cy="54" rx="4.5" ry="2.8" fill="#ffc9bf" opacity="0.8"/><path d="M43 54 Q50 63 57 54 Z" fill="#2e2723" stroke="#2e2723" stroke-width="1.5" stroke-linejoin="round"/><path d="M46.5 58.4 Q50 61.6 53.5 58.4 Q50 57 46.5 58.4 Z" fill="#ff9d90"/></svg>